# xmcd
#
# Track frame offsets: 
#        150
#        28059
#        51230
#        68763
#        93584
#        125384
#        144717
#        156797
#        175782
#        198725
#        219955
#        243318
#
# Disc length: 3418 seconds
#
# Revision: 0
# Processed by: cddbd v1.5.2PL0 Copyright (c) Steve Scherf et al.
# Submitted via: ExactAudioCopy v1.0b4
#
DISCID=ac0d580c
DTITLE=Various Artist - The Rough Guide to African Rare Groove, Vol. 1
DYEAR=2015
DGENRE=World
TTITLE0=Gentleman Mike Ejeagha and His Premiers Dance Band - Ikpechakwa 
TTITLE0=A-Akem Kpee
TTITLE1=Orchestra Marrabenta Star De Mocambique - Elisa Gomara Saia
TTITLE2=Ayalew Mesfin - Hasabé
TTITLE3=Yam Yam feat. Les Mangalepa - Kai Kai
TTITLE4=International Orchestra Safari Sound - Homa Imenizidia
TTITLE5=Osayomore Joseph and The Creative 7 - Oyeye
TTITLE6=West Nkosi - Durban Road
TTITLE7=Super Cayor De Dakar - Dégoo
TTITLE8=Saleta Phiri and the Ab Sounds - Kalulu Mwana
TTITLE9=Malombo - Mbaqanga Blues
TTITLE10=Celestine Ukwu and His Philosophers National - Onwunwa
TTITLE11=Francis Bebey - Ndolo
EXTD=
EXTT0=
EXTT1=
EXTT2=
EXTT3=
EXTT4=
EXTT5=
EXTT6=
EXTT7=
EXTT8=
EXTT9=
EXTT10=
EXTT11=
PLAYORDER=
